<svg width="700" height="571" viewBox="0 0 700 571" fill="none" xmlns="http://www.w3.org/2000/svg">
<path d="M628.108 486.362C569.194 543.965 480.814 553.568 399.153 556.113C306.608 558.989 207.094 556.688 126.277 510.361C-38.4271 415.93 -46.9886 145.046 130.021 55.5993C175.478 32.6276 231.55 27.6603 281.038 42.2311C320.813 53.9435 355.885 77.4206 396.638 85.8563C431.173 93.0023 467.147 88.8367 502.468 86.4663C727.142 71.3727 746.031 371.05 628.108 486.362Z" fill="#F1FBFF"/>
<path d="M355.985 555.669C355.985 562.484 324.93 568.022 286.618 568.022C248.306 568.022 217.251 562.498 217.251 555.669C217.251 548.854 248.306 543.316 286.618 543.316C324.93 543.316 355.985 548.854 355.985 555.669Z" fill="#DDDDDD"/>
<path d="M440.63 555.669C440.63 562.484 409.575 568.022 371.263 568.022C332.951 568.022 301.896 562.498 301.896 555.669C301.896 548.854 332.951 543.316 371.263 543.316C409.575 543.329 440.63 548.854 440.63 555.669Z" fill="#DDDDDD"/>
<g filter="url(#filter0_d)">
<path d="M301.606 541.28C301.606 541.28 294.566 553.74 295.279 556.788C296.003 559.836 295.103 562.898 296.54 562.831C304.252 562.499 311.954 561.926 319.645 561.021C320.152 557.746 320.648 554.245 319.666 551.144C318.053 546.059 305.865 543.503 301.606 541.28Z" fill="#3C3C3B"/>
<path d="M299.652 554.685C298.194 552.808 299.652 546.432 302.153 541.546C301.957 541.453 301.771 541.36 301.595 541.28C301.595 541.28 294.555 553.74 295.268 556.788C295.992 559.836 295.093 562.898 296.53 562.831C304.242 562.499 311.943 561.926 319.635 561.021C319.873 559.463 320.11 557.866 320.183 556.282C313.132 558.518 305.947 558.745 299.652 554.685Z" fill="#3C3C3B"/>
<path d="M282.925 541.281L280.568 552.542C280.568 552.542 273.848 555.151 272.205 557.84C270.561 560.542 272.039 561.887 272.039 561.887L294.162 562.06L300.779 553.993L297.036 538.485L282.925 541.281Z" fill="#3C3C3B"/>
<path d="M300.768 554.006L297.026 538.498L295.227 538.857C295.113 548.096 291.784 557.214 286.171 562.019L294.152 562.086L300.768 554.006Z" fill="#3C3C3B"/>
<path d="M302.422 351.444L305.441 469.783C305.441 469.783 299.889 545.845 299.858 546.284C299.621 549.572 319.924 548.813 321.857 548.667C325.475 525.345 325.579 500.692 327.036 476.971L331.141 424.751L324.08 361.907L302.422 351.444Z" fill="#00234B"/>
<path d="M306.268 456.433C306.268 456.433 323.739 465.512 328.308 460.706L328.05 442.27L306.268 446.596V456.433Z" fill="#00234B"/>
<path d="M275.058 343.99L266.953 447.487L281.581 548.028L299.269 544.075L300.799 522.337L295.496 456.632L304.624 402.388L300.768 344.496L275.058 343.99Z" fill="#00234B"/>
<path d="M267.522 453.53C269.869 454.715 285.448 459.401 289.066 453.53C290.234 451.64 290.937 363.159 290.937 363.159L303.498 348.09L289.066 348.29H277.767L267.511 424.125V453.53H267.522Z" fill="#00234B"/>
<path d="M314.102 238.365L311.422 237.217V229.304H294.226V237.217L291.536 238.296L292.252 260.738H294.226V264.179H311.422V260.738H313.385L314.102 238.365Z" fill="#F6CCB8"/>
<path d="M290.017 244.515L296.54 265.454C296.54 265.454 316.058 245.846 316.068 245.846C314.962 246.964 316.161 259.543 316.172 261.3C316.254 272.895 316.327 284.489 316.41 296.083C316.482 307.345 316.244 318.699 316.637 329.947C316.813 335.126 318.529 340.676 315.086 344.404C310.755 349.076 300.717 348.743 295.434 348.637C290.658 348.544 276.795 348.224 275.368 341.954C274.851 339.691 276.505 334.393 276.847 332.104C278.573 320.629 280.299 309.155 282.026 297.694C284.693 279.95 287.36 262.232 290.017 244.515Z" fill="#0096D6"/>
<path d="M273.828 248.014C273.828 248.014 259.53 318.858 259.324 323.131C259.107 327.404 273.828 361.202 273.828 361.202L281.591 253.166L273.828 248.014Z" fill="#D7E3F2"/>
<path d="M293.532 238.91L273.817 248.015C273.817 248.015 266.85 360.577 268.152 366.181C269.455 371.785 262.022 444.452 262.022 444.452C262.022 444.452 283.68 452.812 287.804 446.116L285.148 293.021L293.532 238.91Z" fill="#F8F9FB"/>
<path d="M331.761 450.269C328.577 451.654 325.238 452.359 321.878 452.599C318.952 452.798 316.027 452.639 313.143 452.266C311.52 452.066 297.181 449.644 297.181 448.259C297.181 448.193 297.026 289.8 297.026 289.8C297.026 289.8 308.046 257.36 310.548 250.97C313.039 244.568 312.047 233.546 312.047 233.546L324.08 249.599L328.236 277.993L329.735 307.597C329.735 307.597 332.723 350.434 333.415 360.47C333.415 360.59 333.425 360.71 333.436 360.816C334.862 381.409 336.237 402.015 337.633 422.595C337.995 428.053 338.45 433.51 338.739 438.968C339.122 446.369 337.53 447.753 331.761 450.269Z" fill="#F8F9FB"/>
<path d="M331.761 450.268C328.577 451.653 325.238 452.358 321.878 452.598L321.423 452.172L335.162 430.235L331.131 351.777L333.405 360.443C333.405 360.563 333.415 360.682 333.426 360.789C334.852 381.382 336.227 401.988 337.623 422.567C337.985 428.025 338.439 433.483 338.729 438.94C339.122 446.368 337.53 447.752 331.761 450.268Z" fill="#F8F9FB"/>
<path d="M317.908 279.589C318.725 281.067 329.228 297.573 329.228 297.573L331.079 326.938L324.08 297.267L317.908 279.589Z" fill="#F8F9FB"/>
<path d="M324.08 343.484L317.722 351.445L329.042 355.358L332.588 348.663L324.08 343.484Z" fill="#FFB980"/>
<path d="M321.785 343.991L331.13 351.791C331.13 351.791 352.364 326.393 353.812 317.847C355.249 309.301 336.392 253.34 336.392 253.34L324.07 249.613L321.289 285.208L329.301 299.171L334.428 322.466L321.785 343.991Z" fill="white"/>
<path d="M320.248 207.842L320.771 201.043C320.771 192.151 312.272 184.947 303.387 184.947C294.496 184.947 286.004 192.151 286.004 201.043L286.526 207.836C286.029 207.956 285.58 208.184 285.206 208.505C284.51 209.097 284.072 209.973 284.072 210.958V214.306C284.072 216.076 285.498 217.512 287.271 217.523C287.271 225.919 297.36 233.878 303.388 233.878C309.415 233.878 319.504 225.92 319.504 217.524C321.271 217.511 322.7 216.077 322.7 214.307V210.959C322.699 209.447 321.653 208.188 320.248 207.842Z" fill="#F6CCB8"/>
<path opacity="0.8" d="M320.247 207.842L320.77 201.043C320.77 192.151 312.271 184.947 303.387 184.947C303.386 184.947 303.385 184.947 303.384 184.947V207.803C301.036 212.798 299.521 220.036 299.521 220.036H303.384V233.879C303.384 233.879 303.385 233.879 303.386 233.879C303.387 233.879 303.388 233.879 303.389 233.879C309.417 233.877 319.503 225.92 319.503 217.524C321.27 217.512 322.699 216.078 322.699 214.308V210.96C322.699 209.447 321.653 208.188 320.247 207.842Z" fill="#F6CCB8"/>
<path d="M323.324 185.417C323.255 184.865 322.753 184.472 322.2 184.536C318.308 184.988 318.078 184.149 311.294 180.155C305.134 176.528 298.83 177.974 294.629 181.096C277.945 184.947 284.104 205.028 286.097 210.442C286.208 210.742 286.648 210.67 286.663 210.351C286.832 206.705 287.734 197.151 292.53 193.783C302.537 200.607 312.764 200.978 318.586 196.92C320.186 200.653 320.273 206.615 320.192 209.734C320.183 210.073 320.664 210.153 320.763 209.828C321.764 206.549 323.387 199.693 321.854 193.429C323.142 191.248 323.711 188.548 323.324 185.417Z" fill="#4F3C30"/>
<path d="M291.713 216.076C291.428 217.069 290.523 219.839 288.666 222.586C288.371 221.675 287.936 220.018 287.644 217.487C287.526 217.5 287.411 217.523 287.29 217.523C287.19 217.523 287.095 217.502 286.997 217.493C287.484 221.799 288.371 223.653 288.41 223.73L288.436 223.718C290.8 229.665 297.275 233.876 303.386 233.876C309.498 233.876 315.972 229.666 318.337 223.718L318.362 223.73C318.4 223.653 319.288 221.799 319.775 217.493C319.677 217.502 319.582 217.523 319.482 217.523C319.36 217.523 319.245 217.5 319.128 217.487C318.837 220.018 318.402 221.675 318.106 222.586C316.249 219.838 315.344 217.069 315.059 216.076" fill="#EBEBEB"/>
<path d="M321.239 205.243H317.788C316.698 204.671 315.171 204.307 313.035 204.307C309.482 204.307 307.071 204.988 305.834 206.317C305.248 205.995 304.375 205.629 303.387 205.629C302.408 205.629 301.541 205.988 300.956 206.308C299.716 204.985 297.308 204.307 293.763 204.307C291.627 204.307 290.1 204.671 289.01 205.243H285.534V207.729L286.675 208.129C286.558 208.595 286.511 209.067 286.511 209.523C286.511 212.612 287.263 216.718 293.763 216.718C299.568 216.718 301.091 213.146 301.815 209.653C301.925 209.123 301.937 208.619 301.864 208.145C302.147 207.964 302.614 207.805 303.386 207.805C304.179 207.805 304.651 207.972 304.932 208.159C304.861 208.629 304.873 209.128 304.982 209.653C305.706 213.147 307.229 216.718 313.035 216.718C319.535 216.718 320.287 212.612 320.287 209.523C320.287 209.065 320.238 208.59 320.12 208.121L321.238 207.729V205.243H321.239ZM300.568 209.394C299.815 213.025 298.37 215.443 293.763 215.443C288.511 215.443 287.787 212.598 287.787 209.523C287.787 208.548 287.787 205.582 293.763 205.582C297.887 205.582 299.512 206.516 300.15 207.298C300.6 207.852 300.741 208.557 300.568 209.394ZM313.035 215.443C308.428 215.443 306.984 213.025 306.231 209.394C306.058 208.557 306.198 207.852 306.649 207.299C307.286 206.516 308.911 205.583 313.035 205.583C319.012 205.583 319.012 208.549 319.012 209.524C319.012 212.598 318.288 215.443 313.035 215.443Z" fill="#42404D"/>
<path d="M313.453 363.425L322.684 372.104L329.383 372.596L321.299 377.455L313.453 363.425Z" fill="#F8F9FB"/>
<path d="M297.016 289.8L317.795 260.941L313.546 257.56L323.522 256.735L324.08 249.6L312.285 235.942L312.274 245.833L297.016 289.8Z" fill="white"/>
<path d="M286.802 283.423L282.925 258.211L284.858 255.629L278.935 254.032C278.935 254.032 292.301 238.564 295.268 236.7L290.006 263.656L286.802 283.423Z" fill="white"/>
<path d="M283.339 267.703C283.225 271.071 280.31 275.29 277.963 271.483C276.671 269.38 278.097 264.095 280.186 263.483C281.902 262.99 283.421 265.453 283.339 267.703Z" fill="#00234B"/>
<path d="M294.731 236.488C289.996 238.458 285.83 242.504 283.07 247.856C280.299 253.233 278.304 261.433 279.938 267.809C280.041 268.209 280.485 268.129 280.506 267.716C280.641 264.495 280.454 261.407 280.961 258.199C281.478 254.924 282.47 251.782 283.866 248.974C286.512 243.676 290.451 239.975 295.02 237.832C295.661 237.526 295.403 236.221 294.731 236.488Z" fill="#00234B"/>
<path d="M317.877 257.585C319.356 253.472 319.232 248.294 318.301 244.008C317.433 240.014 315.396 234.543 312.285 232.76C312.078 232.64 311.788 232.906 311.943 233.199C312.781 234.81 313.949 236.074 314.797 237.698C315.81 239.628 316.575 241.758 317.071 244.008C318.105 248.653 317.671 252.7 316.864 257.306C316.864 257.319 316.864 257.333 316.864 257.346C313.639 257.159 311.499 262.111 310.465 265.399C308.925 270.231 308.449 275.729 309.411 280.827C309.183 281.2 309.039 281.666 309.018 282.132C308.925 283.41 309.824 284.834 311.003 284.421C311.737 284.168 312.316 283.277 312.285 282.278C312.254 281.346 311.706 280.481 311.013 280.202C310.672 280.068 310.362 280.082 310.093 280.202C309.752 276.461 309.804 272.734 310.589 269.02C311.344 265.466 314.135 256.361 318.115 259.369C321.154 261.672 319.904 269.166 319.294 272.774C318.684 276.381 317.588 279.616 316.358 282.877C316.182 282.678 315.986 282.518 315.768 282.438C315.034 282.172 314.311 282.704 314.032 283.596C313.773 284.421 313.98 285.406 314.6 285.872C315.107 286.258 315.789 286.178 316.213 285.659C316.327 285.619 316.44 285.539 316.523 285.38C319.066 280.694 320.421 274.637 320.896 269.007C321.217 265.24 321.423 258.93 317.877 257.585Z" fill="#00234B"/>
<path d="M281.188 267.915C281.126 269.859 279.441 272.295 278.087 270.098C277.342 268.887 278.159 265.825 279.369 265.479C280.351 265.2 281.229 266.611 281.188 267.915Z" fill="#0096D6"/>
<path d="M365.669 550.611C360.242 546.231 365.462 539.882 368.822 535.542C375.676 540.614 382.52 545.685 389.374 550.77C389.291 550.704 381.889 555.097 381.021 555.469C374.849 558.078 372.234 554.977 366.486 551.21C366.186 551.01 365.917 550.81 365.669 550.611Z" fill="#3C3C3B"/>
<path d="M414.339 281.587C412.84 284.223 409.439 283.677 407.651 281.361C405.862 279.045 405.263 275.664 404.736 272.469C403.702 266.159 402.957 259.77 401.924 253.46C401.138 248.641 398.688 243.397 398.636 238.565C402.761 240.348 406.638 244.701 409.439 248.921C412.189 253.061 412.747 257.054 413.75 262.219C414.567 266.439 416.562 277.7 414.339 281.587Z" fill="#0096D6"/>
<path d="M406.121 368.23C405.17 381.116 403.753 391.991 404.301 404.97C405.035 422.368 404.012 439.886 401.262 456.938C399.525 467.746 396.496 478.023 395.235 488.912C394.408 496.007 390.542 508.4 391.503 515.348C391.503 515.335 381.889 445.703 381.889 445.703L387.12 357.688L406.121 368.23Z" fill="#0082BA"/>
<path d="M370.859 543.914C369.049 546.417 367.995 549.625 368.274 553.339C368.894 561.618 374.322 559.715 378.581 559.449C384.701 559.076 390.924 561.592 397.044 561.885C398.492 561.951 408.654 561.858 408.902 560.979C409.688 558.171 408.106 555.043 406.059 553.631C404.022 552.22 401.624 551.994 399.36 551.395C393.633 549.904 393.147 543.435 388.588 540.014C383.316 536.034 375.056 538.11 370.859 543.914Z" fill="#3C3C3B"/>
<path d="M358.701 366.859C356.737 368.523 361.317 395.346 361.741 399.007C364.408 421.689 367.685 444.412 368.098 467.414C368.729 501.931 366.61 539.602 366.61 539.602C366.61 539.602 379.904 548.214 392.289 538.284C392.289 538.284 388.795 471.794 388.898 465.191C389.002 458.589 388.268 404.877 388.268 404.877V366.859H358.701Z" fill="#0096D6"/>
<path opacity="0.45" d="M359.973 375.405C359.973 375.405 384.494 381.954 389.642 380.184C394.791 378.414 405.449 376.643 405.449 376.643L406.131 368.23L359.249 366.367L359.973 375.405Z" fill="#0096D6"/>
<path d="M365.545 243.955C364.635 244.727 363.736 245.513 362.857 246.338C358.205 250.677 361.151 258.145 360.841 264.575C360.221 277.047 359.063 290.212 360.221 302.685C361.534 316.769 363.033 326.473 359.921 337.748C356.809 349.022 354.401 372.078 355.61 371.718C362.154 369.841 371.934 373.675 378.622 374.101C390.118 374.833 401.221 372.81 412.789 372.996C412.313 352.723 410.132 332.316 410.907 311.87C411.3 301.594 412.179 257.253 409.305 252.461C406.431 247.669 397.23 234.93 397.23 234.93C396.279 233.612 392.216 233.399 390.945 233.12C388.691 232.627 385.869 231.429 383.595 231.602C381.341 231.762 379.129 234.038 377.164 235.396C373.236 238.125 369.277 240.814 365.545 243.955Z" fill="#0096D6"/>
<path opacity="0.45" d="M369.597 287.882L373.898 259.701L380.659 297.426L363.963 316.262L369.597 287.882Z" fill="#0096D6"/>
<path opacity="0.45" d="M361.72 321.214C361.72 321.214 387.73 311.271 391.514 309.567C395.297 307.876 410.804 315.384 410.804 315.384V300.062L391.834 291.516L361.058 311.39L361.72 321.214Z" fill="#0096D6"/>
<path d="M357.099 283.823C356.83 284.355 356.747 285.301 356.613 287.018C355.931 295.95 356.189 303.83 357.75 312.496C358.019 313.96 358.339 315.544 359.27 316.436C360.583 317.687 362.423 317.008 363.953 316.276C368.016 314.333 372.161 312.602 376.234 310.552C381.496 307.903 386.107 304.616 391.524 302.486C391.017 302.685 389.518 295.404 388.66 294.858C386.779 293.66 382.551 296.908 380.648 297.441C379.584 297.747 368.274 299.744 368.274 299.837C366.775 294.712 368.936 287.99 370.259 283.104C366.878 283.104 363.488 282.971 360.107 283.104C358.257 283.171 357.481 283.051 357.099 283.823Z" fill="#F2C8B4"/>
<path d="M356.427 289.919L368.502 292.249L370.269 283.091L357.099 283.823L356.427 289.919Z" fill="#D6B9AB"/>
<path d="M363.767 244.926C360.355 248.321 357.512 252.873 355.631 257.479C352.364 265.506 353.78 276.914 354.225 285.726C354.225 285.726 371.334 287.456 371.344 287.456C371.748 287.496 372.812 269.792 372.864 268.647C373.34 258.624 373.009 249.625 370.9 240.108C368.367 241.039 365.958 242.757 363.767 244.926Z" fill="#0096D6"/>
<path d="M389.632 306.292L419.664 314.732L448.32 270.844L417.193 261.34L389.632 306.292Z" fill="#00234B"/>
<path d="M398.678 291.383C400.921 291.53 402.813 291.969 404.601 293.926C405.418 294.817 407.744 298.931 406.772 300.315C406.048 301.34 400.115 299.889 398.936 299.796C400.321 300.302 401.707 300.808 403.092 301.313C403.722 301.54 404.529 302.152 404.301 302.951C404.177 303.39 403.753 303.603 403.381 303.55C403.019 303.496 402.678 303.257 402.347 303.071C400.197 301.873 397.509 302.804 395.214 302.618C392.092 302.365 388.836 302.285 385.755 301.66C385.921 300.475 386.096 299.13 386.376 297.946C387.182 294.498 389.229 292.408 391.824 291.556C394.853 290.571 397.633 287.656 400.755 287.31C400.063 288.654 399.37 290.012 398.678 291.383Z" fill="#F2C8B4"/>
<path d="M425.225 312.322C424.802 312.455 422.889 310.525 422.476 310.166C421.752 309.54 419.271 307.597 419.364 306.319C419.416 305.64 423.168 307.277 423.427 307.384C422.796 307.131 420.511 304.016 420.718 303.111C421.08 301.527 424.295 303.883 424.977 304.229C424.212 303.856 423.086 302.978 422.693 302.006C421.338 298.651 425.804 300.582 426.828 300.861C425.784 300.089 423.675 298.319 425.07 296.748C425.753 295.989 431.097 295.949 431.532 296.775C431.563 296.841 431.8 297.507 431.821 297.573C431.263 302.805 429.836 310.738 425.225 312.322Z" fill="#F2C8B4"/>
<path d="M395.473 225.532C395.473 225.532 395.773 234.424 396.993 239.788L392.175 250.251C392.175 250.251 379.253 238.457 378.281 235.289C378.281 235.289 383.14 231.855 382.458 224.973C381.765 218.104 384.856 232.094 395.473 225.532Z" fill="#F2C8B4"/>
<path d="M395.473 228.846L395.339 218.663L382.292 219.554L381.972 228.912L381.693 237.259C383.512 238.244 385.425 239.096 386.955 240.693C388.516 242.33 390.056 243.914 391.431 245.818C391.379 245.738 393.643 241.625 393.86 241.186C394.47 239.948 394.894 238.537 395.328 237.192C395.69 236.034 395.587 235.329 395.556 234.104C395.494 232.347 395.504 230.59 395.473 228.846Z" fill="#F2C8B4"/>
<path d="M381.972 231.256C385.239 234.158 389.467 236.541 391.969 234.97C393.344 234.118 394.491 232.76 395.473 231.189L395.339 221.006L382.292 221.898L381.972 231.256Z" fill="#D6B9AB"/>
<path d="M382.255 227.052C384.576 227.033 390.24 227.513 395.194 227.052C398.629 226.732 402.125 225.442 404.126 222.815C416.92 206.016 399.13 181.613 380.812 182.128C367.199 182.512 363.785 227.204 382.255 227.052Z" fill="#F2DCB4"/>
<path d="M403.434 205.194V199.018C403.434 192.458 395.939 184.172 390.006 184.172C384.073 184.172 376.578 192.458 376.578 199.018V205.194C374.93 205.194 373.594 206.524 373.594 208.163V211.251C373.594 212.891 374.93 214.22 376.578 214.22C376.578 220.78 384.073 229.304 390.006 229.304C395.939 229.304 403.434 220.78 403.434 214.22C405.082 214.22 406.418 212.891 406.418 211.251V208.163C406.417 206.524 405.082 205.194 403.434 205.194Z" fill="#F6CCB8"/>
<path opacity="0.8" d="M390.795 218.318V229.304C396.443 229.304 403.577 220.78 403.577 214.22C405.146 214.22 406.417 212.891 406.417 211.251V208.163C406.417 206.523 405.146 205.194 403.577 205.194V199.018C403.577 192.458 396.443 184.172 390.795 184.172V208.223C388.723 212.829 387.954 217.724 387.954 217.724L390.795 218.318Z" fill="#F6CCB8"/>
<path d="M383.68 195.114C381.44 199.726 377.814 206.17 375.002 206.256C371.159 198.396 374.965 180.775 389.127 180.099C409.992 179.102 409.287 203.259 407.844 208.789C390.088 204.103 385.094 197.125 383.68 195.114Z" fill="#F2DCB4"/>
<path d="M403.798 213.462C403.544 215.591 403.162 216.985 402.903 217.752C401.276 215.44 400.484 213.109 400.233 212.274L403.182 206.728C403.26 206.599 403.214 206.433 403.079 206.358C402.944 206.284 402.771 206.328 402.694 206.458L399.776 211.95H390.006H380.235L376.395 204.823C376.318 204.693 376.145 204.648 376.011 204.722C375.875 204.797 375.829 204.962 375.906 205.092L379.778 212.273C379.528 213.109 378.735 215.44 377.108 217.751C376.849 216.985 376.468 215.591 376.213 213.461C376.11 213.472 376.009 213.492 375.903 213.492C375.815 213.492 375.732 213.474 375.646 213.467C376.073 217.09 376.85 218.65 376.884 218.715L376.907 218.705C378.978 223.709 384.652 227.253 390.006 227.253C395.361 227.253 401.033 223.709 403.105 218.705L403.128 218.715C403.161 218.65 403.939 217.09 404.366 213.467C404.28 213.474 404.197 213.492 404.109 213.492C404.003 213.492 403.902 213.473 403.798 213.462Z" fill="#EBEBEB"/>
</g>
<path d="M246.002 388.303L248.793 394.878L253.9 398.473L248.793 402.067L246.002 408.656L243.211 402.067L238.104 398.473L243.211 394.878L246.002 388.303Z" fill="white"/>
<path d="M435.89 328.524L438.681 335.1L443.799 338.694L438.681 342.288L435.89 348.877L433.099 342.288L427.992 338.694L433.099 335.1L435.89 328.524Z" fill="white"/>
<path d="M182.511 269.421L185.302 275.997L190.409 279.591L185.302 283.185L182.511 289.774L179.72 283.185L174.602 279.591L179.72 275.997L182.511 269.421Z" fill="white"/>
<path d="M456.613 436.827L459.404 443.403L464.511 446.997L459.404 450.604L456.613 457.18L453.812 450.604L448.705 446.997L453.812 443.403L456.613 436.827Z" fill="white"/>
<path d="M242.053 432.15L243.449 435.438L246.002 437.235L243.449 439.032L242.053 442.32L240.657 439.032L238.104 437.235L240.657 435.438L242.053 432.15Z" fill="white"/>
<path d="M234.195 232.62L235.601 235.908L238.154 237.705L235.601 239.502L234.195 242.79L232.799 239.502L230.246 237.705L232.799 235.908L234.195 232.62Z" fill="white"/>
<path d="M480.758 260.929L482.164 264.217L484.717 266.014L482.164 267.811L480.758 271.099L479.362 267.811L476.809 266.014L479.362 264.217L480.758 260.929Z" fill="white"/>
<path d="M480.758 362.308L482.164 365.596L484.717 367.393L482.164 369.19L480.758 372.478L479.362 369.19L476.809 367.393L479.362 365.596L480.758 362.308Z" fill="white"/>
<path d="M398.531 422.009L399.937 425.297L402.491 427.108L399.937 428.905L398.531 432.193L397.136 428.905L394.582 427.108L397.136 425.297L398.531 422.009Z" fill="white"/>
<path d="M204.562 343.005L205.957 346.307L208.511 348.104L205.957 349.901L204.562 353.189L203.166 349.901L200.613 348.104L203.166 346.307L204.562 343.005Z" fill="white"/>
<g filter="url(#filter1_d)">
<path fill-rule="evenodd" clip-rule="evenodd" d="M304.386 25H366.604C375.544 25 382.801 32.1933 382.801 41.0535V102.057C382.801 110.917 375.544 118.11 366.604 118.11H304.386C295.446 118.11 288.189 110.917 288.189 102.057V41.0535C288.189 32.1933 295.446 25 304.386 25Z" fill="white"/>
<path d="M304.386 25.5H366.604C375.272 25.5 382.301 32.4736 382.301 41.0535V102.057C382.301 110.637 375.272 117.61 366.604 117.61H304.386C295.718 117.61 288.689 110.637 288.689 102.057V41.0535C288.689 32.4736 295.718 25.5 304.386 25.5Z" stroke="#ECECEC"/>
</g>
<path d="M352.292 77.7342L350.714 77.3981V73.3713H344.4V77.3981L342.821 77.7342L344.4 87.6999L350.714 87.7001L352.292 77.7342Z" fill="#F2C8B4"/>
<path d="M344.4 73.3976V75.4639L350.714 77.398V73.3976H344.4Z" fill="#F6CCB8"/>
<path d="M363.619 94.5002C363.492 93.6861 363.335 91.4356 363.13 90.6306L359.139 92.405C359.172 92.6064 359.209 94.2655 359.246 94.5002H363.619Z" fill="#F2C8B4"/>
<path d="M335.867 94.5002C335.905 94.2665 335.941 92.6088 335.975 92.4081L331.984 90.6306C331.777 91.4356 331.621 93.6861 331.494 94.5002H335.867Z" fill="#F2C8B4"/>
<path d="M336.378 94.5004H358.734L358.715 93.448L363.916 90.5536L362.182 82.8072C361.835 81.2619 360.669 80.0313 359.145 79.603L351.402 77.4281L347.556 85.7945L343.711 77.4281L335.968 79.603C334.444 80.0311 333.277 81.2617 332.931 82.8072L331.197 90.5536L336.398 93.448L336.378 94.5004Z" fill="#0696D6"/>
<path d="M343.512 74.4315C344.797 74.421 347.931 74.683 350.671 74.4315C352.572 74.2569 354.507 73.5529 355.613 72.1189C362.693 62.9482 352.849 49.6266 342.714 49.9081C335.182 50.1173 333.293 74.5144 343.512 74.4315Z" fill="#F2DCB4"/>
<path d="M354.789 62.694V59.4106C354.789 55.9233 350.752 51.5178 347.556 51.5178C344.361 51.5178 340.324 55.9233 340.324 59.4106V62.694C339.436 62.694 338.716 63.4009 338.716 64.2726V65.9143C338.716 66.7861 339.436 67.4929 340.324 67.4929C340.324 70.98 344.361 75.512 347.556 75.512C350.752 75.512 354.789 70.9802 354.789 67.4929C355.677 67.4929 356.396 66.786 356.396 65.9143V64.2726C356.396 63.4009 355.677 62.694 354.789 62.694Z" fill="#F6CCB8"/>
<path opacity="0.8" d="M347.556 69.671V75.5117C350.752 75.5117 354.789 70.98 354.789 67.4926C355.676 67.4926 356.396 66.7857 356.396 65.9141V64.2724C356.396 63.4005 355.676 62.6938 354.789 62.6938V59.4104C354.789 55.923 350.752 51.5176 347.556 51.5176V64.3039C346.384 66.753 345.949 69.3553 345.949 69.3553L347.556 69.671Z" fill="#F6CCB8"/>
<path d="M344.094 56.9639C342.844 59.4991 340.82 63.0415 339.251 63.0888C337.106 58.7679 339.231 49.0811 347.134 48.7093C358.779 48.1615 358.386 61.4413 357.581 64.4814C347.671 61.9054 344.883 58.0689 344.094 56.9639Z" fill="#F2DCB4"/>
<path d="M354.762 67.3993C354.629 68.5582 354.43 69.3167 354.294 69.7339C353.444 68.4758 353.03 67.2075 352.899 66.7527L354.44 63.7349C354.481 63.6645 354.457 63.5743 354.386 63.5336C354.316 63.4933 354.225 63.5174 354.185 63.5882L352.66 66.5768H347.554H342.447L340.441 62.6979C340.4 62.6273 340.31 62.603 340.239 62.6434C340.169 62.6841 340.144 62.7741 340.185 62.8446L342.209 66.7525C342.078 67.2075 341.663 68.4758 340.813 69.7337C340.678 69.3167 340.479 68.558 340.345 67.3992C340.291 67.4051 340.239 67.4155 340.183 67.4155C340.137 67.4155 340.094 67.4061 340.049 67.402C340.272 69.3738 340.678 70.2227 340.696 70.2581L340.708 70.2524C341.79 72.976 344.756 74.9042 347.554 74.9042C350.352 74.9042 353.317 72.976 354.4 70.2524L354.412 70.2581C354.429 70.2227 354.836 69.3738 355.059 67.402C355.014 67.4061 354.971 67.4155 354.925 67.4155C354.869 67.4157 354.816 67.4052 354.762 67.3993Z" fill="#EBEBEB"/>
<path d="M330.068 75.9607H321.384V79.4504H330.068V75.9607Z" fill="#D9D9D9"/>
<path d="M330.697 77.1394L329.517 76.5951V72.842H321.939V76.5951L320.754 77.1067L321.07 87.7504H321.939V89.3823H329.517V87.7504H330.381L330.697 77.1394Z" fill="#F6CCB8"/>
<path d="M321.937 72.8419V74.6687L329.514 76.3492V72.8419H321.937Z" fill="#F6CCB8"/>
<path d="M335.434 95.5602C335.578 89.9674 335.269 78.8832 330.692 77.1638L330.411 78.2214C329.923 79.6171 328.674 81.584 325.708 81.584C322.363 81.584 321.086 78.9936 320.69 77.7346L320.538 77.164C315.962 78.8835 315.827 89.9676 316.06 95.5604H335.434V95.5602Z" fill="white"/>
<path d="M345.244 95.5602L343.512 83.4986C343.172 81.137 341.408 79.2314 339.079 78.7121L330.078 76.7047L326.132 95.5602H345.244Z" fill="#EBEBEB"/>
<path d="M325.322 95.5605L321.376 76.7052L312.375 78.7124C310.047 79.2317 308.282 81.1373 307.943 83.4989L306.21 95.5605H325.322Z" fill="#EBEBEB"/>
<path d="M319.841 82.7078L318.433 84.6311L324.652 95.5601H325.32L321.384 75.9603L317.909 77.6002L318.032 81.2206L319.841 82.7078Z" fill="#D9D9D9"/>
<path d="M326.801 95.5594L333.02 84.6304L331.613 82.7071L333.421 81.2198L333.544 77.5994L330.069 75.9596L326.133 95.5594H326.801Z" fill="#D9D9D9"/>
<path d="M336.923 89.7197H336.04V88.8365H334.936V89.7197H334.053V90.8237H334.936V91.7067H336.04V90.8237H336.923V89.7197Z" fill="#0696D6"/>
<path d="M338.358 92.5125H332.618V93.6605H338.358V92.5125Z" fill="#0696D6"/>
<path d="M333.994 62.1513L334.251 58.8171C334.251 54.4571 330.084 50.9243 325.727 50.9243C321.367 50.9243 317.203 54.4571 317.203 58.8171L317.459 62.148C317.215 62.2069 316.995 62.3187 316.811 62.4762C316.47 62.7666 316.255 63.1959 316.255 63.6791V65.3208C316.255 66.1887 316.954 66.8929 317.824 66.8983C317.824 71.0154 322.771 74.9183 325.727 74.9183C328.683 74.9183 333.63 71.0159 333.63 66.8988C334.496 66.8926 335.197 66.1894 335.197 65.3215V63.6798C335.197 62.9383 334.684 62.3209 333.994 62.1513Z" fill="#F6CCB8"/>
<path opacity="0.8" d="M333.994 62.1513L334.251 58.8171C334.251 54.4571 330.083 50.9243 325.727 50.9243C325.726 50.9243 325.726 50.9243 325.725 50.9243V62.1321C324.574 64.5812 323.831 68.1306 323.831 68.1306H325.725V74.9184C325.725 74.9184 325.726 74.9184 325.726 74.9184C325.727 74.9184 325.727 74.9184 325.728 74.9184C328.683 74.9176 333.629 71.0156 333.629 66.899C334.496 66.8928 335.197 66.1896 335.197 65.3216V63.6799C335.196 62.9383 334.683 62.3209 333.994 62.1513Z" fill="#F6CCB8"/>
<path d="M335.503 51.155C335.469 50.8842 335.223 50.6918 334.952 50.7232C333.044 50.9447 332.931 50.5331 329.604 48.5745C326.583 46.796 323.492 47.5051 321.432 49.036C313.251 50.9244 316.271 60.7716 317.248 63.4263C317.303 63.5733 317.519 63.5379 317.526 63.3814C317.609 61.594 318.051 56.9089 320.403 55.2574C325.31 58.6036 330.325 58.7856 333.179 56.7956C333.964 58.6261 334.007 61.5494 333.967 63.0788C333.963 63.2455 334.199 63.2846 334.247 63.1251C334.738 61.5173 335.534 58.1554 334.782 55.0835C335.414 54.014 335.693 52.6902 335.503 51.155Z" fill="#4F3C30"/>
<path d="M320.002 66.1887C319.862 66.676 319.419 68.034 318.508 69.381C318.363 68.9344 318.15 68.122 318.007 66.8809C317.949 66.8873 317.893 66.8985 317.833 66.8985C317.784 66.8985 317.738 66.8882 317.69 66.884C317.928 68.9954 318.364 69.9043 318.382 69.9423L318.395 69.9362C319.555 72.8526 322.73 74.9174 325.726 74.9174C328.723 74.9174 331.898 72.8528 333.057 69.9362L333.07 69.9423C333.089 69.9042 333.524 68.9954 333.763 66.884C333.715 66.8882 333.668 66.8985 333.619 66.8985C333.559 66.8985 333.503 66.8873 333.445 66.8809C333.302 68.122 333.089 68.9342 332.944 69.381C332.034 68.0339 331.59 66.6758 331.45 66.1887" fill="#EBEBEB"/>
<path d="M334.48 60.8768H332.788C332.254 60.5965 331.505 60.4177 330.458 60.4177C328.716 60.4177 327.533 60.7517 326.926 61.4035C326.639 61.2457 326.211 61.0662 325.727 61.0662C325.246 61.0662 324.822 61.2423 324.534 61.3991C323.926 60.7502 322.746 60.4177 321.007 60.4177C319.96 60.4177 319.211 60.5965 318.677 60.8768H316.972V62.0957L317.532 62.2919C317.475 62.5205 317.451 62.7521 317.451 62.9757C317.451 64.4904 317.82 66.5039 321.007 66.5039C323.854 66.5039 324.601 64.7523 324.956 63.0393C325.01 62.7795 325.016 62.532 324.98 62.2997C325.119 62.211 325.348 62.1332 325.726 62.1332C326.115 62.1332 326.347 62.2149 326.484 62.3064C326.449 62.5369 326.455 62.782 326.509 63.0393C326.864 64.7524 327.611 66.5039 330.458 66.5039C333.645 66.5039 334.014 64.4904 334.014 62.9757C334.014 62.751 333.99 62.518 333.932 62.288L334.48 62.0957V60.8768H334.48ZM324.344 62.9122C323.975 64.6927 323.267 65.8785 321.008 65.8785C318.432 65.8785 318.077 64.4833 318.077 62.9757C318.077 62.4975 318.077 61.0431 321.008 61.0431C323.03 61.0431 323.827 61.5008 324.139 61.8847C324.36 62.1562 324.429 62.5018 324.344 62.9122ZM330.458 65.8785C328.199 65.8785 327.49 64.6927 327.121 62.9122C327.036 62.5019 327.105 62.1562 327.326 61.8849C327.639 61.5009 328.436 61.0432 330.458 61.0432C333.389 61.0432 333.389 62.4977 333.389 62.9758C333.389 64.4833 333.033 65.8785 330.458 65.8785Z" fill="#42404D"/>
<g filter="url(#filter2_d)">
<path fill-rule="evenodd" clip-rule="evenodd" d="M142.699 100.075H204.918C213.857 100.075 221.114 107.268 221.114 116.128V177.131C221.114 185.992 213.857 193.185 204.918 193.185H142.699C133.76 193.185 126.502 185.992 126.502 177.131V116.128C126.502 107.268 133.76 100.075 142.699 100.075Z" fill="white"/>
<path d="M142.699 100.575H204.918C213.585 100.575 220.614 107.548 220.614 116.128V177.131C220.614 185.711 213.585 192.685 204.918 192.685H142.699C134.032 192.685 127.002 185.711 127.002 177.131V116.128C127.002 107.548 134.032 100.575 142.699 100.575Z" stroke="#ECECEC"/>
</g>
<path d="M173.048 134.229H172.543C172.543 134.229 171.988 134.898 172.396 135.441H172.975C172.666 134.991 172.643 134.681 173.048 134.229Z" fill="#BD2A2E"/>
<path d="M175.637 162.211C176.025 159.081 170.323 159.495 168.375 158.373C167.854 158.073 167.539 157.717 167.444 157.34H164.12C164.268 161.921 172.773 159.968 173.866 162.211C173.95 162.383 173.997 162.561 174.019 162.742H175.538C175.58 162.568 175.615 162.391 175.637 162.211Z" fill="#0696D6"/>
<path d="M175.637 162.211C176.025 159.081 170.323 159.495 168.375 158.373C167.854 158.073 167.539 157.717 167.444 157.34H166.506C166.518 157.384 166.531 157.428 166.546 157.473C167.033 158.934 169.052 159.377 171.12 159.775C173.188 160.174 175.586 160.591 175.048 162.698C175.044 162.713 175.039 162.727 175.035 162.742H175.538C175.58 162.568 175.615 162.391 175.637 162.211Z" fill="#24388A"/>
<path d="M172.214 136.055C164.954 134.904 160.82 133.309 162.518 128.379C164.151 123.64 169.079 125.814 170.054 126.299C169.15 127.32 168.26 128.992 169.242 130.97C170.232 132.963 171.143 134.512 172.529 134.512C173.915 134.512 174.826 132.963 175.816 130.97C176.806 128.977 175.872 127.228 174.961 126.21C174.961 126.21 173.978 120.749 166.664 121.117C158.754 121.516 154.671 128.948 158.457 134.638C161.498 139.208 176.878 140.483 181.956 142.018C184.036 142.647 185.213 143.801 185.542 145.029H190.629C190.275 138.921 178.887 137.113 172.214 136.055Z" fill="#0696D6"/>
<path d="M169.624 130.96C169.624 130.96 170.443 131.004 170.333 132.222C170.333 132.222 170 132 169.624 130.96Z" fill="white"/>
<path d="M174.252 126.21C172.99 125.944 172.104 126.21 172.104 126.21C174.03 126.298 175.11 127.095 175.076 128.867C175.042 130.638 174.184 133.715 172.68 133.715C171.175 133.715 169.703 131.87 169.241 130.97C170.231 132.963 171.142 134.512 172.528 134.512C173.914 134.512 174.825 132.963 175.815 130.97C176.805 128.977 175.871 127.228 174.96 126.21C174.96 126.21 173.978 120.749 166.664 121.117C166.456 121.128 166.251 121.144 166.049 121.164C173.018 120.994 174.252 126.21 174.252 126.21Z" fill="#24388A"/>
<path d="M175.436 130.96C175.436 130.96 174.617 131.004 174.727 132.222C174.727 132.222 175.059 132 175.436 130.96Z" fill="white"/>
<path d="M190.609 144.779C190.607 144.767 190.605 144.756 190.604 144.744C190.595 144.664 190.583 144.585 190.57 144.507C190.566 144.48 190.56 144.453 190.555 144.426C190.543 144.358 190.529 144.291 190.514 144.225C190.508 144.202 190.503 144.178 190.498 144.156C190.476 144.069 190.453 143.983 190.427 143.899C190.422 143.884 190.417 143.87 190.412 143.855C190.39 143.784 190.366 143.714 190.34 143.645C190.33 143.619 190.321 143.594 190.311 143.568C190.286 143.505 190.26 143.443 190.233 143.381C190.224 143.36 190.215 143.339 190.206 143.319C190.169 143.239 190.131 143.159 190.09 143.081C190.081 143.065 190.072 143.049 190.063 143.032C190.03 142.969 189.995 142.907 189.958 142.845C189.944 142.821 189.929 142.797 189.915 142.773C189.879 142.714 189.842 142.656 189.803 142.598C189.791 142.58 189.779 142.561 189.767 142.543C189.717 142.469 189.665 142.396 189.61 142.324C189.597 142.307 189.583 142.289 189.569 142.271C189.527 142.216 189.483 142.161 189.438 142.106C189.419 142.083 189.4 142.06 189.38 142.037C189.334 141.983 189.287 141.929 189.238 141.875C189.223 141.859 189.209 141.842 189.194 141.826C189.131 141.758 189.067 141.691 189.001 141.625C188.982 141.607 188.963 141.589 188.945 141.57C188.894 141.521 188.843 141.472 188.791 141.423C188.767 141.401 188.744 141.38 188.72 141.358C188.664 141.307 188.607 141.258 188.549 141.208C188.532 141.193 188.515 141.178 188.498 141.164C188.425 141.102 188.35 141.041 188.274 140.981C188.25 140.962 188.225 140.943 188.2 140.924C188.145 140.881 188.088 140.838 188.031 140.795C188.002 140.774 187.974 140.753 187.945 140.732C187.881 140.686 187.817 140.64 187.751 140.595C187.732 140.581 187.713 140.568 187.693 140.554C187.611 140.498 187.527 140.443 187.442 140.388C187.412 140.369 187.382 140.35 187.352 140.331C187.292 140.293 187.231 140.255 187.17 140.218C187.136 140.198 187.103 140.177 187.069 140.157C186.999 140.115 186.928 140.074 186.857 140.033C186.834 140.02 186.812 140.007 186.788 139.994C186.7 139.944 186.61 139.894 186.519 139.845C186.482 139.826 186.444 139.806 186.407 139.786C186.346 139.754 186.284 139.722 186.222 139.69C186.183 139.67 186.143 139.65 186.103 139.63C186.029 139.593 185.955 139.557 185.88 139.52C185.837 139.5 185.795 139.479 185.752 139.459C185.674 139.422 185.595 139.385 185.516 139.349C185.472 139.329 185.427 139.309 185.383 139.289C185.322 139.262 185.26 139.235 185.199 139.208C185.153 139.188 185.107 139.168 185.062 139.149C184.988 139.117 184.913 139.086 184.838 139.055C184.775 139.029 184.712 139.003 184.649 138.978C184.582 138.95 184.514 138.923 184.446 138.897C184.394 138.876 184.342 138.856 184.289 138.836C184.232 138.814 184.174 138.791 184.115 138.769C184.062 138.749 184.008 138.729 183.954 138.709C183.886 138.684 183.817 138.659 183.748 138.634C183.664 138.604 183.579 138.574 183.494 138.544C183.437 138.524 183.38 138.504 183.323 138.485C183.262 138.464 183.201 138.444 183.14 138.423C183.088 138.406 183.036 138.388 182.983 138.371C182.921 138.351 182.858 138.33 182.796 138.31C182.744 138.293 182.693 138.277 182.642 138.261C182.526 138.224 182.411 138.188 182.295 138.153C182.249 138.139 182.204 138.125 182.158 138.111C182.088 138.09 182.018 138.069 181.948 138.049C181.905 138.036 181.861 138.023 181.817 138.01C181.744 137.989 181.671 137.968 181.597 137.947C181.594 137.946 181.592 137.946 181.589 137.945C181.414 137.895 181.237 137.846 181.06 137.799C181.029 137.79 180.998 137.782 180.967 137.773C180.885 137.752 180.804 137.73 180.722 137.709C180.693 137.701 180.664 137.693 180.634 137.686C180.361 137.615 180.086 137.547 179.811 137.48C179.793 137.476 179.775 137.472 179.757 137.467C179.666 137.445 179.575 137.424 179.483 137.402C179.468 137.399 179.453 137.396 179.438 137.392C179.142 137.323 178.846 137.256 178.549 137.192C178.549 137.192 178.549 137.192 178.548 137.192C176.298 136.704 174.072 136.35 172.213 136.056C164.953 134.905 160.819 133.309 162.517 128.38C163.138 126.578 164.235 125.776 165.41 125.5C164.091 125.734 162.584 126.039 161.764 129.199C160.856 132.698 161.919 134.513 166.303 135.709C170.686 136.904 173.292 136.793 179.255 138.284C179.594 138.369 179.934 138.454 180.274 138.54C185.092 139.889 189.235 142.109 189.603 145.03H190.628C190.623 144.945 190.617 144.862 190.609 144.779Z" fill="#24388A"/>
<path d="M161.986 122.889C161.986 122.889 155.669 126.452 158.448 132.719C161.227 138.987 171.673 138.609 176.239 140.291C176.239 140.291 173.435 139.108 166.991 137.785C160.547 136.463 158.586 132.301 158.448 129.619C158.31 126.937 160.261 124.145 161.986 122.889Z" fill="white"/>
<path opacity="0.3" d="M183.441 139.648L169.994 139.12L156.547 138.618C156.547 138.618 155.928 149.328 164.726 152.109C164.726 152.109 168.903 153.166 168.903 155.7C168.903 158.235 168.903 161.896 168.903 163.304C168.903 164.712 160.7 166.719 160.7 168.479C160.7 170.239 164.291 170.873 169.994 170.873C175.697 170.873 179.287 170.239 179.287 168.479C179.287 166.719 171.472 165.1 171.472 163.692C171.472 162.284 171.472 158.622 171.472 156.088C171.472 153.553 175.263 152.11 175.263 152.11C184.061 149.329 183.441 139.648 183.441 139.648Z" fill="#0696D6"/>
<path d="M184.568 139.337L171.121 138.808L157.673 139.337C157.673 139.337 157.055 149.017 165.853 151.798L165.851 151.798C165.851 151.798 169.642 153.242 169.642 155.776C169.642 158.311 169.642 161.972 169.642 163.38C169.642 164.788 161.827 166.408 161.827 168.168C161.827 169.928 165.418 170.561 171.12 170.561C176.823 170.561 180.414 169.928 180.414 168.168C180.414 166.408 172.599 164.788 172.599 163.38C172.599 161.972 172.599 158.311 172.599 155.776C172.599 153.242 176.389 151.798 176.389 151.798L176.388 151.798C185.186 149.017 184.568 139.337 184.568 139.337Z" fill="#FFD400"/>
<path d="M167.084 149.769C164.268 147.845 162.578 145.169 162.015 139.208L158.447 139.337C158.447 139.337 158.823 145.732 162.015 148.314C165.206 150.896 170.181 152.233 170.181 154.686C170.181 157.138 170.181 162.911 170.181 163.85C170.181 164.789 165.957 166.948 164.314 167.699C163.244 168.188 162.852 168.956 162.708 169.432C163.433 169.854 164.587 170.143 166.097 170.323C166.03 170.011 166.081 169.405 166.99 168.591C168.351 167.371 170.839 164.883 170.839 163.85C170.839 162.818 170.839 156.458 170.839 154.686C170.839 152.914 169.9 151.693 167.084 149.769Z" fill="#FFC81A"/>
<path d="M184.568 139.337L171.121 138.808L157.673 139.337C157.673 139.337 157.639 139.878 157.703 140.741C159.567 141.362 163.825 142.399 171.473 142.399C182.386 142.399 180.274 146.271 177.317 148.876C174.36 151.481 171.684 152.185 171.684 156.058C171.684 159.93 171.684 162.394 171.684 163.732C171.684 165.069 174.571 166.83 176.261 167.886C177.716 168.795 177.917 169.339 177.316 170.147C179.295 169.781 180.414 169.15 180.414 168.167C180.414 166.407 172.599 164.788 172.599 163.38C172.599 161.972 172.599 158.31 172.599 155.776C172.599 153.241 176.39 151.798 176.39 151.798L176.388 151.797C185.186 149.017 184.568 139.337 184.568 139.337Z" fill="#F9A023"/>
<path d="M181.766 138.351C179.106 138.069 175.321 137.893 171.121 137.893C166.92 137.893 163.136 138.069 160.476 138.351H156.547V139.336C156.547 140.133 163.072 140.78 171.121 140.78C179.17 140.78 185.695 140.133 185.695 139.336V138.351H181.766Z" fill="#FDB91F"/>
<path d="M171.118 139.794C179.167 139.794 185.692 139.148 185.692 138.351C185.692 137.554 179.167 136.908 171.118 136.908C163.069 136.908 156.544 137.554 156.544 138.351C156.544 139.148 163.069 139.794 171.118 139.794Z" fill="#FFCF16"/>
<path d="M171.121 139.372C163.508 139.372 158.521 138.82 157.217 138.351C158.521 137.882 163.508 137.33 171.121 137.33C178.734 137.33 183.722 137.882 185.026 138.351C183.721 138.82 178.734 139.372 171.121 139.372Z" fill="#F9AD22"/>
<path d="M157.217 138.352C158.093 138.667 160.633 139.019 164.512 139.216C165.182 138.519 166.407 137.804 168.625 137.352C162.422 137.456 158.372 137.936 157.217 138.352Z" fill="#F58E25"/>
<path d="M170.603 167.583C171.787 167.642 174.069 166.46 174.069 166.46L173.462 165.508L170.603 167.583Z" fill="#F9A023"/>
<path d="M172.716 155.024C172.924 154.343 173.394 153.76 173.931 153.285H171.122C171.122 153.285 169.93 153.91 169.208 154.324C169.474 154.758 169.643 155.242 169.643 155.776C169.643 155.827 169.643 155.879 169.643 155.931C170.228 155.709 171.429 155.287 172.716 155.024Z" fill="#F9A023"/>
<path d="M190.628 145.029H185.541C186.017 146.8 184.73 148.725 181.837 149.457C177.245 150.619 164.406 152.528 164.125 156.956C164.117 157.089 164.116 157.216 164.12 157.339H167.444C167.182 156.307 168.577 155.116 171.977 154.478C176.527 153.624 188.922 152.941 190.457 146.742C190.607 146.136 190.659 145.566 190.628 145.029Z" fill="#0696D6"/>
<path d="M190.633 145.134C190.632 145.108 190.631 145.082 190.63 145.056C190.629 145.047 190.628 145.038 190.628 145.029H189.602C189.684 145.675 189.583 146.354 189.262 147.066C187.225 151.583 176.243 152.646 171.771 153.797C167.435 154.913 166.138 155.946 166.506 157.34H167.443C167.182 156.307 168.577 155.116 171.976 154.478C176.526 153.625 188.921 152.941 190.456 146.742C190.482 146.636 190.504 146.533 190.525 146.429C190.531 146.399 190.536 146.369 190.541 146.339C190.555 146.262 190.568 146.186 190.579 146.11C190.583 146.081 190.587 146.052 190.591 146.024C190.604 145.924 190.615 145.824 190.622 145.726C190.623 145.719 190.623 145.712 190.623 145.704C190.63 145.613 190.633 145.523 190.635 145.434C190.636 145.405 190.636 145.377 190.636 145.348C190.636 145.276 190.635 145.205 190.633 145.134Z" fill="#24388A"/>
<path d="M165.307 156.719C165.94 154.473 171.905 152.202 171.905 152.202C165.979 154.04 164.618 155.644 164.64 157.339H165.191C165.208 157.147 165.244 156.941 165.307 156.719Z" fill="white"/>
<path d="M165.191 157.34H164.64C164.64 157.384 164.641 157.428 164.643 157.473C164.737 159.217 166.635 159.642 166.635 159.642C166.635 159.642 165.042 159.093 165.191 157.34Z" fill="white"/>
<path d="M174.02 162.741C174.29 164.967 170.192 167.653 170.603 167.583C171.589 167.416 174.842 165.571 175.539 162.741H174.02Z" fill="#0696D6"/>
<path d="M175.036 162.741C174.488 164.825 172.959 166.322 170.603 167.583C171.589 167.416 174.841 165.571 175.538 162.741H175.036Z" fill="#24388A"/>
<path d="M173.183 135.718C173.103 135.619 173.034 135.528 172.975 135.441H172.396C172.436 135.495 172.482 135.547 172.543 135.598C173.216 136.159 172.88 136.697 172.543 136.899C172.206 137.101 172.161 137.797 172.408 138.067C172.655 138.336 172.588 138.992 172.588 138.992L172.812 138.628L173.003 138.992C173.003 138.992 173.138 138.392 172.868 138.111C172.599 137.831 172.588 137.505 172.88 137.225C173.171 136.944 173.676 136.333 173.183 135.718Z" fill="#BD2A2E"/>
<g filter="url(#filter3_d)">
<path fill-rule="evenodd" clip-rule="evenodd" d="M475.577 100.075H537.796C546.735 100.075 553.993 107.268 553.993 116.128V177.131C553.993 185.992 546.735 193.185 537.796 193.185H475.577C466.638 193.185 459.381 185.992 459.381 177.131V116.128C459.381 107.268 466.638 100.075 475.577 100.075Z" fill="white"/>
<path d="M475.577 100.575H537.796C546.463 100.575 553.493 107.548 553.493 116.128V177.131C553.493 185.711 546.463 192.685 537.796 192.685H475.577C466.91 192.685 459.881 185.711 459.881 177.131V116.128C459.881 107.548 466.91 100.575 475.577 100.575Z" stroke="#ECECEC"/>
</g>
<path d="M510.607 147.583H505.148V152.756C505.148 153.221 504.779 153.59 504.314 153.59C503.849 153.59 503.48 153.221 503.48 152.756V147.583H484.911V159.216C484.911 163.113 486.639 166.593 489.38 168.953C491.633 170.896 494.565 172.064 497.759 172.064C501.203 172.064 504.326 170.705 506.638 168.5C509.082 166.164 510.607 162.863 510.607 159.204V147.583ZM504.91 158.656C504.755 158.811 504.541 158.894 504.314 158.894C504.255 158.894 504.207 158.894 504.147 158.882C504.1 158.87 504.04 158.858 503.992 158.834C503.945 158.811 503.897 158.787 503.849 158.751C503.802 158.715 503.766 158.691 503.718 158.644C503.563 158.489 503.48 158.274 503.48 158.048C503.48 157.833 503.575 157.619 503.718 157.464C503.754 157.428 503.802 157.392 503.849 157.357C503.897 157.321 503.945 157.297 503.992 157.285C504.04 157.261 504.1 157.249 504.147 157.237C504.421 157.178 504.707 157.273 504.898 157.464C505.053 157.619 505.136 157.833 505.136 158.048C505.148 158.286 505.065 158.501 504.91 158.656Z" fill="#16ADE1"/>
<path d="M515.482 146.486C514.374 146.486 513.301 146.629 512.276 146.892V159.215C512.276 163.16 510.726 166.831 507.914 169.584C510.035 171.146 512.645 172.063 515.482 172.063C518.712 172.063 521.668 170.86 523.92 168.881C523.896 168.869 523.873 168.845 523.861 168.822L515.458 160.419C515.136 160.097 515.136 159.561 515.458 159.239C515.78 158.917 516.316 158.917 516.638 159.239L525.041 167.642C525.064 167.666 525.076 167.677 525.1 167.701C527.079 165.449 528.282 162.493 528.282 159.263C528.271 152.207 522.55 146.486 515.482 146.486ZM514.505 158.298C514.35 158.453 514.135 158.548 513.909 158.548C513.849 158.548 513.801 158.536 513.742 158.536C513.682 158.524 513.635 158.512 513.587 158.488C513.539 158.464 513.492 158.441 513.444 158.417C513.396 158.381 513.36 158.357 513.313 158.309C513.158 158.155 513.074 157.94 513.074 157.725C513.074 157.666 513.074 157.618 513.086 157.559C513.098 157.499 513.11 157.451 513.134 157.404C513.158 157.356 513.182 157.308 513.206 157.261C513.241 157.213 513.265 157.177 513.313 157.13C513.503 156.939 513.801 156.844 514.064 156.903C514.123 156.915 514.171 156.927 514.219 156.951C514.266 156.975 514.314 156.998 514.362 157.034C514.409 157.07 514.445 157.094 514.493 157.141C514.528 157.177 514.564 157.225 514.6 157.273C514.636 157.32 514.66 157.368 514.683 157.416C514.707 157.463 514.719 157.523 514.731 157.571C514.743 157.618 514.743 157.678 514.743 157.737C514.743 157.916 514.66 158.143 514.505 158.298Z" fill="#1B3954"/>
<path d="M516.065 146.486C514.957 146.486 513.884 146.629 512.859 146.892V159.215C512.859 163.16 511.31 166.831 508.497 169.584C510.619 171.146 513.229 172.063 516.065 172.063C519.295 172.063 522.251 170.86 524.504 168.881C524.48 168.869 524.456 168.845 524.444 168.822L516.042 160.419C515.72 160.097 515.72 159.561 516.042 159.239C516.363 158.917 516.9 158.917 517.222 159.239L525.624 167.642C525.648 167.666 525.66 167.677 525.684 167.701C527.662 165.449 528.866 162.493 528.866 159.263C528.854 152.207 523.133 146.486 516.065 146.486ZM515.088 158.298C514.933 158.453 514.719 158.548 514.492 158.548C514.433 158.548 514.385 158.536 514.325 158.536C514.266 158.524 514.218 158.512 514.17 158.488C514.123 158.464 514.075 158.441 514.027 158.417C513.98 158.381 513.944 158.357 513.896 158.309C513.741 158.155 513.658 157.94 513.658 157.725C513.658 157.666 513.658 157.618 513.67 157.559C513.682 157.499 513.694 157.451 513.718 157.404C513.741 157.356 513.765 157.308 513.789 157.261C513.825 157.213 513.849 157.177 513.896 157.13C514.087 156.939 514.385 156.844 514.647 156.903C514.707 156.915 514.754 156.927 514.802 156.951C514.85 156.975 514.897 156.998 514.945 157.034C514.993 157.07 515.029 157.094 515.076 157.141C515.112 157.177 515.148 157.225 515.183 157.273C515.219 157.32 515.243 157.368 515.267 157.416C515.291 157.463 515.303 157.523 515.315 157.571C515.326 157.618 515.326 157.678 515.326 157.737C515.326 157.916 515.243 158.143 515.088 158.298Z" fill="#FFD400"/>
<path d="M510.607 135.45C510.607 131.898 509.165 128.692 506.841 126.368C504.517 124.044 501.299 122.602 497.759 122.602C495.363 122.602 493.123 123.257 491.204 124.401C487.437 126.642 484.911 130.754 484.911 135.462V145.938H510.607V135.45ZM493.885 128.906C491.585 130.277 490.155 132.78 490.155 135.45C490.155 135.915 489.785 136.284 489.321 136.284C488.856 136.284 488.486 135.915 488.486 135.45C488.486 132.196 490.226 129.133 493.027 127.464C493.421 127.226 493.933 127.357 494.171 127.762C494.41 128.156 494.279 128.668 493.885 128.906Z" fill="#1B3954"/>
<g filter="url(#filter4_d)">
<path fill-rule="evenodd" clip-rule="evenodd" d="M489.585 254.758H551.803C560.742 254.758 568 261.951 568 270.811V331.815C568 340.675 560.742 347.868 551.803 347.868H489.585C480.645 347.868 473.388 340.675 473.388 331.815V270.811C473.388 261.951 480.645 254.758 489.585 254.758Z" fill="white"/>
<path d="M489.585 255.258H551.803C560.471 255.258 567.5 262.231 567.5 270.811V331.815C567.5 340.394 560.471 347.368 551.803 347.368H489.585C480.917 347.368 473.888 340.394 473.888 331.815V270.811C473.888 262.231 480.917 255.258 489.585 255.258Z" stroke="#ECECEC"/>
</g>
<path d="M517.108 289.674C518.836 289.731 521.145 290.374 522.983 291.996C525.953 294.619 525.895 297.758 522.799 300.247C522.418 300.553 522.019 300.845 521.621 301.135C520.069 302.267 518.531 303.389 518.105 305.38C517.93 306.199 516.893 306.286 516.037 306.13C515.036 305.949 514.474 305.36 514.343 304.459C514.073 302.617 514.864 301.138 516.377 299.933C516.831 299.572 517.304 299.229 517.778 298.886C518.223 298.563 518.668 298.24 519.098 297.902C520.698 296.645 520.794 295.279 519.282 293.929C517.886 292.681 515.33 292.675 514.134 293.932C513.628 294.462 513.294 295.136 512.972 295.783L512.954 295.821C512.418 296.896 511.626 297.688 510.231 297.237C508.778 296.766 508.169 295.786 508.573 294.336C509.371 291.473 512.315 289.655 517.108 289.674Z" fill="#0696D6"/>
<path d="M514.72 310.063C514.685 311.429 515.596 312.139 516.887 312.389C518.112 312.273 518.935 311.672 518.897 310.467C518.856 309.117 517.936 308.277 516.607 308.259C515.56 308.246 514.748 308.991 514.72 310.063Z" fill="#0696D6"/>
<path fill-rule="evenodd" clip-rule="evenodd" d="M502.852 315.336C499.658 311.947 497.037 308.199 496.242 303.487C495.107 296.758 496.881 290.905 502.218 286.563C502.588 286.262 502.957 285.959 503.327 285.655C507.46 282.264 511.617 278.853 517.13 277.724C529.312 275.23 541.727 283.622 543.768 295.848C544.382 299.522 543.561 302.955 541.915 306.226C541.8 306.455 541.667 306.676 541.533 306.897C541.185 307.474 540.838 308.05 540.818 308.769C537.866 310.373 536.808 312.345 537.341 315.368C537.778 317.844 537.487 320.004 535.491 321.846C534.655 322.619 533.979 323.568 533.304 324.516C532.999 324.944 532.695 325.371 532.376 325.782C530.671 327.438 528.828 326.815 526.983 326.191L526.805 326.131C525.248 323.777 522.833 321.856 520.36 321.794C513.682 321.629 507.977 319.443 502.852 315.336ZM515.627 284.192C515.386 284.192 515.144 284.186 514.902 284.181C514.38 284.169 513.857 284.156 513.339 284.201C500.687 285.284 494.015 298.512 500.721 309.312C504.041 314.656 508.922 317.851 515.033 319.043C516 319.231 516.986 319.337 517.97 319.444C520.788 319.747 523.595 320.05 525.93 322.272C526.045 322.382 526.167 322.501 526.293 322.625C527.351 323.662 528.753 325.038 529.93 324.337C530.826 323.802 530.414 322.432 530.034 321.171C529.912 320.769 529.795 320.378 529.724 320.029C529.278 317.833 529.672 316.433 531.548 314.873C535.756 311.377 537.463 306.615 536.545 301.134C534.91 291.352 525.977 284.141 515.627 284.192Z" fill="#0696D6"/>
<g filter="url(#filter5_d)">
<path fill-rule="evenodd" clip-rule="evenodd" d="M120.172 241.242H182.391C191.33 241.242 198.587 248.435 198.587 257.295V318.298C198.587 327.159 191.33 334.352 182.391 334.352H120.172C111.233 334.352 103.975 327.159 103.975 318.298V257.295C103.975 248.435 111.233 241.242 120.172 241.242Z" fill="white"/>
<path d="M120.172 241.742H182.391C191.058 241.742 198.087 248.715 198.087 257.295V318.298C198.087 326.878 191.058 333.852 182.391 333.852H120.172C111.505 333.852 104.475 326.878 104.475 318.298V257.295C104.475 248.715 111.505 241.742 120.172 241.742Z" stroke="#ECECEC"/>
</g>
<path opacity="0.3" d="M125.91 279.964L165.955 265.54C166.726 265.263 167.578 265.643 167.886 266.401L178.474 292.493C179.331 294.605 178.269 297.007 176.129 297.792L137.549 311.967C135.131 312.855 132.435 311.75 131.336 309.421L122.162 289.974C121.739 289.078 122.157 288.011 123.076 287.64L126.67 286.189L125.007 281.957C124.693 281.157 125.101 280.255 125.91 279.964Z" fill="#0696D6"/>
<path d="M123.184 286.749L123.093 286.792L123.184 286.749C122.786 285.905 123.179 284.899 124.044 284.55L124.045 284.55L127.638 283.099L127.73 283.062L127.694 282.969L126.031 278.737C125.738 277.99 126.12 277.148 126.875 276.875L166.921 262.451C167.64 262.192 168.437 262.547 168.724 263.256L168.817 263.219L168.724 263.256L179.313 289.347C180.149 291.407 179.113 293.749 177.026 294.516L177.061 294.609L177.026 294.516L138.446 308.69C136.077 309.56 133.435 308.477 132.358 306.195L123.184 286.749Z" fill="#FFFCFF" stroke="#C9C8C8" stroke-width="0.2"/>
<path d="M127.601 283.007L124.007 284.458C123.088 284.829 122.671 285.896 123.094 286.792L132.268 306.238C132.679 307.109 133.313 307.808 134.072 308.297C138.001 307.587 135.709 301.992 135.709 301.992L127.601 283.007Z" fill="#D1CDD3"/>
<path d="M145.745 283.38L132.735 288.624L137.98 301.635L150.99 296.39L145.745 283.38Z" fill="#6FA7DB"/>
<path d="M149.125 291.763L136.114 297.008L137.98 301.635L150.99 296.39L149.125 291.763Z" fill="#ABDE91"/>
<path d="M138.352 294.426L147.675 288.167L149.124 291.76L138.933 295.868L138.352 294.426Z" fill="#2B5434"/>
<path d="M141.753 294.731L134.951 294.121L136.114 297.005L141.753 294.731Z" fill="#62A953"/>
<path d="M138.219 292.318C139.174 292.318 139.949 291.544 139.949 290.589C139.949 289.634 139.174 288.86 138.219 288.86C137.264 288.86 136.49 289.634 136.49 290.589C136.49 291.544 137.264 292.318 138.219 292.318Z" fill="#FFC66D"/>
<path d="M156.743 278.946L147.114 282.828L147.535 283.874L157.165 279.992L156.743 278.946Z" fill="#0696D6"/>
<path d="M157.703 281.33L148.074 285.212L148.495 286.258L158.125 282.376L157.703 281.33Z" fill="#0696D6"/>
<path d="M158.666 283.714L149.036 287.596L149.458 288.641L159.088 284.759L158.666 283.714Z" fill="#0696D6"/>
<path d="M159.627 286.1L149.997 289.982L150.419 291.028L160.048 287.146L159.627 286.1Z" fill="#0696D6"/>
<path d="M160.584 288.474L150.954 292.356L151.376 293.402L161.006 289.52L160.584 288.474Z" fill="#0696D6"/>
<path d="M161.546 290.858L151.916 294.741L152.337 295.787L161.967 291.904L161.546 290.858Z" fill="#0696D6"/>
<path d="M168.954 274.023L159.324 277.905L159.746 278.951L169.376 275.069L168.954 274.023Z" fill="#0696D6"/>
<path d="M169.916 276.408L160.286 280.29L160.708 281.336L170.337 277.454L169.916 276.408Z" fill="#0696D6"/>
<path d="M170.877 278.793L161.247 282.675L161.669 283.721L171.298 279.839L170.877 278.793Z" fill="#0696D6"/>
<path d="M171.838 281.176L162.209 285.058L162.63 286.104L172.26 282.222L171.838 281.176Z" fill="#0696D6"/>
<path d="M172.795 283.551L163.166 287.433L163.587 288.479L173.217 284.597L172.795 283.551Z" fill="#0696D6"/>
<path d="M173.757 285.936L164.127 289.818L164.549 290.864L174.178 286.982L173.757 285.936Z" fill="#0696D6"/>
<path d="M163.34 295.313L153.711 299.194L154.132 300.24L163.762 296.359L163.34 295.313Z" fill="#0696D6"/>
<path d="M148.962 301.108L139.333 304.99L139.754 306.036L149.384 302.154L148.962 301.108Z" fill="#0696D6"/>
<path d="M167.703 270.92L131.484 285.52L131.906 286.566L168.125 271.966L167.703 270.92Z" fill="#0696D6"/>
<path d="M175.552 290.388L165.923 294.27L166.344 295.316L175.974 291.434L175.552 290.388Z" fill="#0696D6"/>
<path d="M130.315 296.512L132.92 295.461L132.477 294.424L129.893 295.466L130.315 296.512Z" fill="#1B2746"/>
<path d="M131.272 298.886L133.925 297.816L133.482 296.779L130.85 297.84L131.272 298.886Z" fill="#1B2746"/>
<path d="M129.354 294.128L131.91 293.097L131.467 292.059L128.932 293.082L129.354 294.128Z" fill="#1B2746"/>
<path d="M127.431 289.359L129.89 288.367L129.447 287.33L127.009 288.313L127.431 289.359Z" fill="#1B2746"/>
<path d="M134.492 299.144L131.812 300.225L132.233 301.27L134.935 300.181L134.492 299.144Z" fill="#1B2746"/>
<path d="M128.392 291.743L130.9 290.732L130.457 289.695L127.971 290.697L128.392 291.743Z" fill="#1B2746"/>
<defs>
<filter id="filter0_d" x="255.321" y="178.017" width="196.999" height="392.815" filterUnits="userSpaceOnUse" color-interpolation-filters="sRGB">
<feFlood flood-opacity="0" result="BackgroundImageFix"/>
<feColorMatrix in="SourceAlpha" type="matrix" values="0 0 0 0 0 0 0 0 0 0 0 0 0 0 0 0 0 0 127 0"/>
<feOffset dy="4"/>
<feGaussianBlur stdDeviation="2"/>
<feColorMatrix type="matrix" values="0 0 0 0 0 0 0 0 0 0 0 0 0 0 0 0 0 0 0.1 0"/>
<feBlend mode="normal" in2="BackgroundImageFix" result="effect1_dropShadow"/>
<feBlend mode="normal" in="SourceGraphic" in2="effect1_dropShadow" result="shape"/>
</filter>
<filter id="filter1_d" x="263.189" y="0" width="144.612" height="143.11" filterUnits="userSpaceOnUse" color-interpolation-filters="sRGB">
<feFlood flood-opacity="0" result="BackgroundImageFix"/>
<feColorMatrix in="SourceAlpha" type="matrix" values="0 0 0 0 0 0 0 0 0 0 0 0 0 0 0 0 0 0 127 0"/>
<feOffset/>
<feGaussianBlur stdDeviation="12.5"/>
<feColorMatrix type="matrix" values="0 0 0 0 0 0 0 0 0 0 0 0 0 0 0 0 0 0 0.1 0"/>
<feBlend mode="normal" in2="BackgroundImageFix" result="effect1_dropShadow"/>
<feBlend mode="normal" in="SourceGraphic" in2="effect1_dropShadow" result="shape"/>
</filter>
<filter id="filter2_d" x="101.502" y="75.0747" width="144.612" height="143.11" filterUnits="userSpaceOnUse" color-interpolation-filters="sRGB">
<feFlood flood-opacity="0" result="BackgroundImageFix"/>
<feColorMatrix in="SourceAlpha" type="matrix" values="0 0 0 0 0 0 0 0 0 0 0 0 0 0 0 0 0 0 127 0"/>
<feOffset/>
<feGaussianBlur stdDeviation="12.5"/>
<feColorMatrix type="matrix" values="0 0 0 0 0 0 0 0 0 0 0 0 0 0 0 0 0 0 0.1 0"/>
<feBlend mode="normal" in2="BackgroundImageFix" result="effect1_dropShadow"/>
<feBlend mode="normal" in="SourceGraphic" in2="effect1_dropShadow" result="shape"/>
</filter>
<filter id="filter3_d" x="434.381" y="75.0747" width="144.612" height="143.11" filterUnits="userSpaceOnUse" color-interpolation-filters="sRGB">
<feFlood flood-opacity="0" result="BackgroundImageFix"/>
<feColorMatrix in="SourceAlpha" type="matrix" values="0 0 0 0 0 0 0 0 0 0 0 0 0 0 0 0 0 0 127 0"/>
<feOffset/>
<feGaussianBlur stdDeviation="12.5"/>
<feColorMatrix type="matrix" values="0 0 0 0 0 0 0 0 0 0 0 0 0 0 0 0 0 0 0.1 0"/>
<feBlend mode="normal" in2="BackgroundImageFix" result="effect1_dropShadow"/>
<feBlend mode="normal" in="SourceGraphic" in2="effect1_dropShadow" result="shape"/>
</filter>
<filter id="filter4_d" x="448.388" y="229.758" width="144.612" height="143.11" filterUnits="userSpaceOnUse" color-interpolation-filters="sRGB">
<feFlood flood-opacity="0" result="BackgroundImageFix"/>
<feColorMatrix in="SourceAlpha" type="matrix" values="0 0 0 0 0 0 0 0 0 0 0 0 0 0 0 0 0 0 127 0"/>
<feOffset/>
<feGaussianBlur stdDeviation="12.5"/>
<feColorMatrix type="matrix" values="0 0 0 0 0 0 0 0 0 0 0 0 0 0 0 0 0 0 0.1 0"/>
<feBlend mode="normal" in2="BackgroundImageFix" result="effect1_dropShadow"/>
<feBlend mode="normal" in="SourceGraphic" in2="effect1_dropShadow" result="shape"/>
</filter>
<filter id="filter5_d" x="78.9755" y="216.242" width="144.612" height="143.11" filterUnits="userSpaceOnUse" color-interpolation-filters="sRGB">
<feFlood flood-opacity="0" result="BackgroundImageFix"/>
<feColorMatrix in="SourceAlpha" type="matrix" values="0 0 0 0 0 0 0 0 0 0 0 0 0 0 0 0 0 0 127 0"/>
<feOffset/>
<feGaussianBlur stdDeviation="12.5"/>
<feColorMatrix type="matrix" values="0 0 0 0 0 0 0 0 0 0 0 0 0 0 0 0 0 0 0.1 0"/>
<feBlend mode="normal" in2="BackgroundImageFix" result="effect1_dropShadow"/>
<feBlend mode="normal" in="SourceGraphic" in2="effect1_dropShadow" result="shape"/>
</filter>
</defs>
</svg>
